<svg width="900" height="324" viewBox="0 0 900 324" fill="none" xmlns="http://www.w3.org/2000/svg">
<rect width="900" height="323.813" fill="#F0F3F5"/>
<rect x="0.5" y="0.5" width="899" height="322.813" stroke="#374A5F" stroke-opacity="0.1"/>
<path d="M27.36 24.384L26.592 26.88H27.52V28.992H25.408V27.12L26.432 24.384H27.36ZM24.032 24.384L23.264 26.88H24.192V28.992H22.08V27.12L23.104 24.384H24.032ZM33.5618 36V26.224H30.2338V24.64H38.5538V26.224H35.2258V36H33.5618ZM40.0835 36V24.64H41.7635V29.504H46.2115V24.64H47.8915V36H46.2115V31.072H41.7635V36H40.0835ZM50.1893 36V24.64H57.1653V26.224H51.8693V29.536H56.9733V31.072H51.8693V34.416H57.2933V36H50.1893ZM72.9128 36.256C70.4488 36.256 68.8488 34.688 68.6568 32.304L70.3848 32.192C70.6088 33.824 71.5368 34.688 72.9768 34.688C74.3688 34.688 75.1528 34.128 75.1528 33.12C75.1528 32.112 74.6088 31.536 72.2248 30.864C69.8888 30.224 68.9128 29.44 68.9128 27.68C68.9128 25.728 70.3528 24.384 72.7368 24.384C75.1048 24.384 76.4648 25.872 76.6888 28.064L74.9608 28.16C74.7848 26.848 74.0488 25.952 72.6888 25.952C71.4408 25.952 70.6408 26.608 70.6408 27.6C70.6408 28.592 71.2008 28.96 73.2168 29.52C75.9368 30.256 76.8808 31.264 76.8808 33.12C76.8808 34.992 75.2968 36.256 72.9128 36.256ZM81.5305 36V26.224H78.2025V24.64H86.5225V26.224H83.1945V36H81.5305ZM87.5403 36L90.8683 24.64H93.0443L96.3723 36H94.6283L93.8123 33.04H90.1003L89.2843 36H87.5403ZM91.9563 26.384L90.5323 31.488H93.3803L91.9563 26.384ZM101.598 36.256C98.862 36.256 97.326 33.984 97.326 30.336C97.326 26.672 98.862 24.384 101.598 24.384C103.662 24.384 105.15 25.808 105.614 28.272L103.854 28.368C103.534 26.784 102.67 25.952 101.598 25.952C99.95 25.952 99.07 27.536 99.07 30.336C99.07 33.12 99.95 34.688 101.598 34.688C102.766 34.688 103.646 33.776 103.934 32.048L105.678 32.128C105.278 34.72 103.774 36.256 101.598 36.256ZM107.24 36V24.64H108.92V29.984L113.176 24.64H115.208L111.144 29.632L115.336 36H113.368L110.088 30.928L108.92 32.368V36H107.24ZM118.178 29.248L118.946 26.752H118.018V24.64H120.13V26.512L119.106 29.248H118.178ZM121.506 29.248L122.274 26.752H121.346V24.64H123.458V26.512L122.434 29.248H121.506Z" fill="#98A3AE"/>
<rect width="61.8027" height="53.8027" transform="translate(298.094 41)" fill="#FAFCFD"/>
<path d="M317.215 72.4014L320.499 63.2955H322.256L325.539 72.4014H324.064L323.23 70.0287H319.511L318.69 72.4014H317.215ZM319.947 68.7718H322.807L321.371 64.6165L319.947 68.7718ZM326.513 74.3251V65.5784H327.795L327.821 66.6172C328.218 65.8349 328.975 65.4245 329.886 65.4245C331.886 65.4245 332.81 67.0661 332.81 68.9899C332.81 70.9136 331.874 72.5553 329.886 72.5553C329.014 72.5553 328.244 72.1449 327.872 71.478V74.3251H326.513ZM329.642 71.3754C330.732 71.3754 331.399 70.4904 331.399 68.9899C331.399 67.4893 330.732 66.6044 329.642 66.6044C328.552 66.6044 327.872 67.4124 327.872 68.9899C327.872 70.5674 328.539 71.3754 329.642 71.3754ZM334.19 74.3251V65.5784H335.473L335.498 66.6172C335.896 65.8349 336.653 65.4245 337.563 65.4245C339.564 65.4245 340.487 67.0661 340.487 68.9899C340.487 70.9136 339.551 72.5553 337.563 72.5553C336.691 72.5553 335.922 72.1449 335.55 71.478V74.3251H334.19ZM337.32 71.3754C338.41 71.3754 339.077 70.4904 339.077 68.9899C339.077 67.4893 338.41 66.6044 337.32 66.6044C336.23 66.6044 335.55 67.4124 335.55 68.9899C335.55 70.5674 336.217 71.3754 337.32 71.3754Z" fill="#374A5F"/>
<rect width="61.8027" height="53.8027" transform="translate(369.097 41)" fill="#FAFCFD"/>
<path d="M388.218 72.4014L391.502 63.2955H393.259L396.542 72.4014H395.067L394.233 70.0287H390.514L389.693 72.4014H388.218ZM390.95 68.7718H393.81L392.374 64.6165L390.95 68.7718ZM397.516 74.3251V65.5784H398.798L398.824 66.6172C399.221 65.8349 399.978 65.4245 400.889 65.4245C402.889 65.4245 403.813 67.0661 403.813 68.9899C403.813 70.9136 402.877 72.5553 400.889 72.5553C400.017 72.5553 399.247 72.1449 398.875 71.478V74.3251H397.516ZM400.645 71.3754C401.735 71.3754 402.402 70.4904 402.402 68.9899C402.402 67.4893 401.735 66.6044 400.645 66.6044C399.555 66.6044 398.875 67.4124 398.875 68.9899C398.875 70.5674 399.542 71.3754 400.645 71.3754ZM405.193 74.3251V65.5784H406.476L406.501 66.6172C406.899 65.8349 407.656 65.4245 408.566 65.4245C410.567 65.4245 411.49 67.0661 411.49 68.9899C411.49 70.9136 410.554 72.5553 408.566 72.5553C407.694 72.5553 406.925 72.1449 406.553 71.478V74.3251H405.193ZM408.323 71.3754C409.413 71.3754 410.08 70.4904 410.08 68.9899C410.08 67.4893 409.413 66.6044 408.323 66.6044C407.232 66.6044 406.553 67.4124 406.553 68.9899C406.553 70.5674 407.22 71.3754 408.323 71.3754Z" fill="#374A5F"/>
<rect width="90.8027" height="53.8027" transform="translate(440.101 41)" fill="#F35D17"/>
<path d="M463.45 72.6066C460.988 72.6066 459.295 70.8239 459.295 67.8613C459.295 64.9243 460.962 63.0903 463.463 63.0903C465.72 63.0903 466.926 64.2959 467.311 66.2838L465.861 66.3607C465.618 65.1167 464.848 64.36 463.463 64.36C461.809 64.36 460.731 65.6938 460.731 67.8613C460.731 70.0415 461.822 71.3369 463.45 71.3369C464.925 71.3369 465.708 70.5032 465.926 69.1438L467.375 69.2207C467.029 71.2856 465.695 72.6066 463.45 72.6066ZM468.81 72.4014V63.2955H470.17V66.5659C470.529 65.7836 471.273 65.4245 472.171 65.4245C473.658 65.4245 474.466 66.489 474.466 68.0152V72.4014H473.107V68.3743C473.107 67.1559 472.684 66.5659 471.812 66.5659C470.811 66.5659 470.17 67.2072 470.17 68.3999V72.4014H468.81ZM478.161 72.5553C476.737 72.5553 475.827 71.8755 475.827 70.6956C475.827 69.5285 476.507 68.9001 478.007 68.6051L480.354 68.1562C480.354 67.1046 479.854 66.5787 478.879 66.5787C478.007 66.5787 477.52 66.9763 477.34 67.7202L475.942 67.6304C476.199 66.2709 477.263 65.4245 478.879 65.4245C480.726 65.4245 481.714 66.4633 481.714 68.2332V70.888C481.714 71.2215 481.816 71.3241 482.073 71.3241H482.316V72.4014C482.227 72.427 482.021 72.4398 481.816 72.4398C481.034 72.4398 480.572 72.1449 480.47 71.3497C480.123 72.0679 479.225 72.5553 478.161 72.5553ZM478.379 71.478C479.61 71.478 480.354 70.7084 480.354 69.6183V69.1822L478.353 69.567C477.533 69.7209 477.238 70.0415 477.238 70.5674C477.238 71.1573 477.648 71.478 478.379 71.478ZM485.73 72.4014C484.435 72.4014 483.832 71.8371 483.832 70.5545V66.6942H482.793V65.5784H483.832V63.9752H485.191V65.5784H487V66.6942H485.191V70.4519C485.191 71.0932 485.461 71.2856 486.025 71.2856H487V72.4014H485.73ZM492.093 72.6066C489.502 72.6066 487.976 70.6315 487.976 67.8613C487.976 65.1295 489.528 63.0903 492.144 63.0903C494.389 63.0903 495.543 64.3856 495.902 66.1555L494.453 66.2325C494.235 65.1167 493.581 64.36 492.144 64.36C490.246 64.36 489.413 65.9503 489.413 67.8613C489.413 69.8492 490.259 71.3369 492.157 71.3369C493.645 71.3369 494.556 70.2596 494.607 68.9257H492.17V67.7587H495.928V72.4014H494.979L494.915 70.9521C494.466 71.9397 493.35 72.6066 492.093 72.6066ZM497.658 72.4014V63.2955H501.057C503.134 63.2955 504.365 64.36 504.365 66.1299C504.365 67.9126 503.134 68.9899 501.057 68.9899H499.043V72.4014H497.658ZM499.043 67.733H501.018C502.275 67.733 502.929 67.1815 502.929 66.1299C502.929 65.091 502.275 64.5652 501.018 64.5652H499.043V67.733ZM507.934 72.4014V64.5652H505.138V63.2955H512.115V64.5652H509.319V72.4014H507.934Z" fill="white"/>
<rect width="61.8027" height="53.8027" transform="translate(540.104 41)" fill="#FAFCFD"/>
<path d="M559.225 72.4014L562.508 63.2955H564.266L567.549 72.4014H566.074L565.24 70.0287H561.521L560.7 72.4014H559.225ZM561.957 68.7718H564.817L563.381 64.6165L561.957 68.7718ZM568.523 74.3251V65.5784H569.805L569.831 66.6172C570.228 65.8349 570.985 65.4245 571.896 65.4245C573.896 65.4245 574.82 67.0661 574.82 68.9899C574.82 70.9136 573.883 72.5553 571.896 72.5553C571.023 72.5553 570.254 72.1449 569.882 71.478V74.3251H568.523ZM571.652 71.3754C572.742 71.3754 573.409 70.4904 573.409 68.9899C573.409 67.4893 572.742 66.6044 571.652 66.6044C570.562 66.6044 569.882 67.4124 569.882 68.9899C569.882 70.5674 570.549 71.3754 571.652 71.3754ZM576.2 74.3251V65.5784H577.483L577.508 66.6172C577.906 65.8349 578.663 65.4245 579.573 65.4245C581.574 65.4245 582.497 67.0661 582.497 68.9899C582.497 70.9136 581.561 72.5553 579.573 72.5553C578.701 72.5553 577.931 72.1449 577.56 71.478V74.3251H576.2ZM579.329 71.3754C580.42 71.3754 581.086 70.4904 581.086 68.9899C581.086 67.4893 580.42 66.6044 579.329 66.6044C578.239 66.6044 577.56 67.4124 577.56 68.9899C577.56 70.5674 578.226 71.3754 579.329 71.3754Z" fill="#374A5F"/>
<rect width="361.893" height="53.8027" transform="translate(269.054 104.003)" fill="#FAFCFD"/>
<path d="M425.165 135.405V126.299H428.563C430.641 126.299 431.872 127.363 431.872 129.133C431.872 130.916 430.641 131.993 428.563 131.993H426.55V135.405H425.165ZM426.55 130.736H428.525C429.782 130.736 430.436 130.185 430.436 129.133C430.436 128.094 429.782 127.569 428.525 127.569H426.55V130.736ZM434.94 135.405C434.042 135.405 433.453 134.969 433.453 133.955V126.299H434.812V133.827C434.812 134.148 434.979 134.289 435.287 134.289H435.825V135.405H434.94ZM438.971 135.559C437.547 135.559 436.636 134.879 436.636 133.699C436.636 132.532 437.316 131.903 438.817 131.608L441.164 131.16C441.164 130.108 440.663 129.582 439.689 129.582C438.817 129.582 438.329 129.98 438.15 130.724L436.752 130.634C437.008 129.274 438.073 128.428 439.689 128.428C441.536 128.428 442.523 129.467 442.523 131.237V133.891C442.523 134.225 442.626 134.327 442.882 134.327H443.126V135.405C443.036 135.43 442.831 135.443 442.626 135.443C441.843 135.443 441.382 135.148 441.279 134.353C440.933 135.071 440.035 135.559 438.971 135.559ZM439.189 134.481C440.42 134.481 441.164 133.712 441.164 132.622V132.186L439.163 132.57C438.342 132.724 438.047 133.045 438.047 133.571C438.047 134.161 438.458 134.481 439.189 134.481ZM446.539 135.405C445.244 135.405 444.641 134.84 444.641 133.558V129.698H443.602V128.582H444.641V126.979H446.001V128.582H447.809V129.698H446.001V133.455C446.001 134.097 446.27 134.289 446.834 134.289H447.809V135.405H446.539ZM449.5 135.405V129.774H448.551V128.672H449.5V128.146C449.5 127.017 450.116 126.299 451.462 126.299H452.668V127.415H451.642C451.103 127.415 450.86 127.71 450.86 128.223V128.672H452.565V129.774H450.86V135.405H449.5ZM456.363 135.559C454.414 135.559 453.131 134.161 453.131 131.993C453.131 129.826 454.414 128.428 456.363 128.428C458.313 128.428 459.595 129.826 459.595 131.993C459.595 134.161 458.313 135.559 456.363 135.559ZM456.363 134.379C457.517 134.379 458.184 133.494 458.184 131.993C458.184 130.493 457.517 129.608 456.363 129.608C455.209 129.608 454.542 130.493 454.542 131.993C454.542 133.494 455.209 134.379 456.363 134.379ZM460.969 135.405V128.582H462.213L462.252 129.877C462.508 128.979 463.047 128.582 463.88 128.582H464.534V129.8H463.88C462.842 129.8 462.329 130.3 462.329 131.378V135.405H460.969ZM465.553 135.405V128.582H466.797L466.823 129.749C467.156 128.915 467.862 128.428 468.721 128.428C469.734 128.428 470.439 128.954 470.734 129.839C471.042 128.928 471.735 128.428 472.709 128.428C474.146 128.428 474.967 129.351 474.967 131.019V135.405H473.607V131.352C473.607 130.172 473.184 129.569 472.312 129.569C471.453 129.569 470.901 130.249 470.901 131.403V135.405H469.606V131.403C469.606 130.249 469.247 129.569 468.336 129.569C467.464 129.569 466.913 130.262 466.913 131.403V135.405H465.553Z" fill="#374A5F"/>
<rect width="515.238" height="53.8027" transform="translate(192.381 167.007)" fill="#FAFCFD"/>
<path d="M400.778 198.613C398.136 198.613 396.533 196.818 396.533 193.868C396.533 190.918 398.136 189.097 400.778 189.097C403.446 189.097 405.036 190.918 405.036 193.868C405.036 196.818 403.446 198.613 400.778 198.613ZM400.778 197.344C402.548 197.344 403.6 196.061 403.6 193.868C403.6 191.675 402.548 190.367 400.778 190.367C399.021 190.367 397.97 191.675 397.97 193.868C397.97 196.061 399.021 197.344 400.778 197.344ZM406.562 200.332V191.585H407.845L407.87 192.624C408.268 191.842 409.025 191.431 409.935 191.431C411.936 191.431 412.859 193.073 412.859 194.997C412.859 196.92 411.923 198.562 409.935 198.562C409.063 198.562 408.294 198.152 407.922 197.485V200.332H406.562ZM409.692 197.382C410.782 197.382 411.449 196.497 411.449 194.997C411.449 193.496 410.782 192.611 409.692 192.611C408.601 192.611 407.922 193.419 407.922 194.997C407.922 196.574 408.589 197.382 409.692 197.382ZM417.048 198.562C415.061 198.562 413.817 197.151 413.817 194.997C413.817 192.842 415.061 191.431 417.01 191.431C418.87 191.431 420.127 192.752 420.127 195.048V195.394H415.227C415.291 196.728 415.971 197.395 417.061 197.395C417.856 197.395 418.395 196.997 418.613 196.356L420.024 196.446C419.665 197.716 418.549 198.562 417.048 198.562ZM415.227 194.368H418.69C418.6 193.163 417.933 192.586 417.01 192.586C416.035 192.586 415.381 193.214 415.227 194.368ZM421.504 198.408V191.585H422.748L422.787 192.88C423.043 191.983 423.582 191.585 424.415 191.585H425.069V192.804H424.415C423.377 192.804 422.864 193.304 422.864 194.381V198.408H421.504ZM427.974 198.562C426.55 198.562 425.64 197.882 425.64 196.702C425.64 195.535 426.319 194.907 427.82 194.612L430.167 194.163C430.167 193.111 429.667 192.586 428.692 192.586C427.82 192.586 427.333 192.983 427.153 193.727L425.755 193.637C426.012 192.278 427.076 191.431 428.692 191.431C430.539 191.431 431.527 192.47 431.527 194.24V196.895C431.527 197.228 431.629 197.331 431.886 197.331H432.129V198.408C432.04 198.434 431.834 198.447 431.629 198.447C430.847 198.447 430.385 198.152 430.282 197.356C429.936 198.075 429.038 198.562 427.974 198.562ZM428.192 197.485C429.423 197.485 430.167 196.715 430.167 195.625V195.189L428.166 195.574C427.346 195.728 427.051 196.048 427.051 196.574C427.051 197.164 427.461 197.485 428.192 197.485ZM435.543 198.408C434.247 198.408 433.645 197.844 433.645 196.561V192.701H432.606V191.585H433.645V189.982H435.004V191.585H436.813V192.701H435.004V196.459C435.004 197.1 435.273 197.292 435.838 197.292H436.813V198.408H435.543ZM438.086 190.598V189.238H439.497V190.598H438.086ZM438.112 198.408V191.585H439.471V198.408H438.112ZM441.506 198.408V191.585H442.75L442.776 192.778C443.135 191.842 443.917 191.431 444.853 191.431C446.379 191.431 447.162 192.534 447.162 194.022V198.408H445.802V194.432C445.802 193.227 445.43 192.573 444.481 192.573C443.519 192.573 442.865 193.227 442.865 194.432V198.408H441.506ZM451.677 200.486C450.049 200.486 448.997 199.703 448.702 198.524L450.113 198.434C450.292 199.011 450.716 199.357 451.677 199.357C452.806 199.357 453.435 198.895 453.435 197.908V196.92C453.101 197.613 452.332 198.062 451.447 198.062C449.728 198.062 448.51 196.715 448.51 194.753C448.51 192.804 449.702 191.431 451.395 191.431C452.37 191.431 453.152 191.906 453.486 192.662V191.585H454.794V197.869C454.794 199.55 453.588 200.486 451.677 200.486ZM451.665 196.908C452.729 196.908 453.422 196.087 453.435 194.74C453.46 193.406 452.742 192.586 451.665 192.586C450.562 192.586 449.92 193.419 449.92 194.74C449.92 196.074 450.587 196.908 451.665 196.908ZM463.266 198.613C461.086 198.613 459.726 197.344 459.572 195.471L460.996 195.381C461.163 196.651 461.932 197.356 463.292 197.356C464.459 197.356 465.151 196.908 465.151 196.048C465.151 195.279 464.754 194.804 462.74 194.317C460.56 193.791 459.765 193.163 459.765 191.739C459.765 190.174 460.958 189.097 462.92 189.097C464.998 189.097 466.19 190.341 466.395 192.06L464.972 192.137C464.844 191.085 464.138 190.354 462.894 190.354C461.843 190.354 461.188 190.893 461.188 191.688C461.188 192.483 461.637 192.778 463.407 193.201C465.767 193.753 466.575 194.638 466.575 195.971C466.575 197.6 465.228 198.613 463.266 198.613ZM468.405 200.332V199.216H469.239C469.7 199.216 469.88 199.088 470.008 198.767L470.226 198.203H469.803L467.341 191.585H468.777L470.65 196.946L472.432 191.585H473.882L471.163 199.203C470.88 199.986 470.393 200.332 469.431 200.332H468.405ZM477.388 198.562C475.464 198.562 474.438 197.6 474.335 196.254L475.733 196.189C475.862 196.946 476.349 197.421 477.388 197.421C478.234 197.421 478.773 197.164 478.773 196.561C478.773 196.061 478.516 195.843 477.157 195.612C475.131 195.253 474.502 194.663 474.502 193.547C474.502 192.303 475.451 191.431 477.221 191.431C478.978 191.431 479.889 192.432 480.081 193.676L478.683 193.753C478.555 193.047 478.055 192.573 477.208 192.573C476.336 192.573 475.913 192.957 475.913 193.496C475.913 194.099 476.31 194.343 477.426 194.522C479.555 194.868 480.184 195.433 480.184 196.548C480.184 197.831 479.017 198.562 477.388 198.562ZM483.925 198.408C482.63 198.408 482.027 197.844 482.027 196.561V192.701H480.988V191.585H482.027V189.982H483.387V191.585H485.195V192.701H483.387V196.459C483.387 197.1 483.656 197.292 484.22 197.292H485.195V198.408H483.925ZM489.19 198.562C487.202 198.562 485.958 197.151 485.958 194.997C485.958 192.842 487.202 191.431 489.152 191.431C491.011 191.431 492.268 192.752 492.268 195.048V195.394H487.369C487.433 196.728 488.113 197.395 489.203 197.395C489.998 197.395 490.537 196.997 490.755 196.356L492.166 196.446C491.806 197.716 490.691 198.562 489.19 198.562ZM487.369 194.368H490.832C490.742 193.163 490.075 192.586 489.152 192.586C488.177 192.586 487.523 193.214 487.369 194.368ZM493.646 198.408V191.585H494.89L494.915 192.752C495.249 191.919 495.954 191.431 496.814 191.431C497.827 191.431 498.532 191.957 498.827 192.842C499.135 191.931 499.827 191.431 500.802 191.431C502.239 191.431 503.059 192.355 503.059 194.022V198.408H501.7V194.355C501.7 193.175 501.277 192.573 500.405 192.573C499.545 192.573 498.994 193.252 498.994 194.407V198.408H497.698V194.407C497.698 193.252 497.339 192.573 496.429 192.573C495.557 192.573 495.005 193.265 495.005 194.407V198.408H493.646Z" fill="#374A5F"/>
<rect width="668.582" height="53.8027" transform="translate(115.709 230.01)" fill="#FAFCFD"/>
<path d="M422.134 261.411V252.306H423.519V256.204H427.725V252.306H429.11V261.411H427.725V257.461H423.519V261.411H422.134ZM432.959 261.565C431.535 261.565 430.625 260.886 430.625 259.706C430.625 258.539 431.304 257.91 432.805 257.615L435.152 257.166C435.152 256.115 434.652 255.589 433.677 255.589C432.805 255.589 432.317 255.986 432.138 256.73L430.74 256.641C430.996 255.281 432.061 254.435 433.677 254.435C435.524 254.435 436.511 255.473 436.511 257.243V259.898C436.511 260.232 436.614 260.334 436.87 260.334H437.114V261.411C437.024 261.437 436.819 261.45 436.614 261.45C435.832 261.45 435.37 261.155 435.267 260.36C434.921 261.078 434.023 261.565 432.959 261.565ZM433.177 260.488C434.408 260.488 435.152 259.719 435.152 258.628V258.192L433.151 258.577C432.33 258.731 432.035 259.052 432.035 259.577C432.035 260.167 432.446 260.488 433.177 260.488ZM438.262 261.411V254.589H439.506L439.544 255.884C439.801 254.986 440.34 254.589 441.173 254.589H441.827V255.807H441.173C440.134 255.807 439.621 256.307 439.621 257.384V261.411H438.262ZM445.22 261.565C443.463 261.565 442.373 260.193 442.373 258C442.373 255.82 443.476 254.435 445.22 254.435C446.156 254.435 446.938 254.845 447.31 255.55V252.306H448.67V261.411H447.4L447.362 260.385C446.977 261.129 446.169 261.565 445.22 261.565ZM445.579 260.385C446.695 260.385 447.31 259.501 447.31 258C447.31 256.487 446.695 255.615 445.579 255.615C444.489 255.615 443.783 256.512 443.783 258C443.783 259.462 444.489 260.385 445.579 260.385ZM451.871 261.411L449.794 254.589H451.217L452.679 259.924L454.18 254.589H455.462L456.963 259.924L458.438 254.589H459.861L457.784 261.411H456.258L454.821 256.538L453.385 261.411H451.871ZM462.705 261.565C461.281 261.565 460.37 260.886 460.37 259.706C460.37 258.539 461.05 257.91 462.551 257.615L464.898 257.166C464.898 256.115 464.398 255.589 463.423 255.589C462.551 255.589 462.063 255.986 461.884 256.73L460.486 256.641C460.742 255.281 461.807 254.435 463.423 254.435C465.27 254.435 466.257 255.473 466.257 257.243V259.898C466.257 260.232 466.36 260.334 466.616 260.334H466.86V261.411C466.77 261.437 466.565 261.45 466.36 261.45C465.577 261.45 465.116 261.155 465.013 260.36C464.667 261.078 463.769 261.565 462.705 261.565ZM462.923 260.488C464.154 260.488 464.898 259.719 464.898 258.628V258.192L462.897 258.577C462.076 258.731 461.781 259.052 461.781 259.577C461.781 260.167 462.192 260.488 462.923 260.488ZM468.008 261.411V254.589H469.252L469.29 255.884C469.547 254.986 470.086 254.589 470.919 254.589H471.573V255.807H470.919C469.88 255.807 469.367 256.307 469.367 257.384V261.411H468.008ZM475.35 261.565C473.363 261.565 472.119 260.155 472.119 258C472.119 255.845 473.363 254.435 475.312 254.435C477.172 254.435 478.429 255.756 478.429 258.051V258.398H473.529C473.593 259.731 474.273 260.398 475.363 260.398C476.158 260.398 476.697 260.001 476.915 259.359L478.326 259.449C477.967 260.719 476.851 261.565 475.35 261.565ZM473.529 257.372H476.992C476.902 256.166 476.235 255.589 475.312 255.589C474.337 255.589 473.683 256.217 473.529 257.372Z" fill="#374A5F"/>
</svg>
